<svg width="21" height="19" viewBox="0 0 68 61" fill="none" xmlns="http://www.w3.org/2000/svg">
<path d="M67.5279 18.1529V21.179C67.491 21.302 67.4329 21.4233 67.4206 21.5498C67.1146 24.5882 66.0771 27.3735 64.5278 29.9901C64.2799 30.4101 64.0073 30.5314 63.5395 30.5296C58.4433 30.512 53.347 30.5085 48.249 30.5349C47.7232 30.5366 47.4788 30.3521 47.2467 29.9181C45.1505 25.9975 43.0455 22.0822 40.9036 18.1881C40.6451 17.7189 40.2125 17.2497 39.743 17.0142C38.7353 16.5081 37.6872 17.0265 37.1333 18.1916C34.6415 23.4283 32.1549 28.6704 29.6666 33.9089C29.5505 34.1514 29.4274 34.3904 29.2709 34.7049C29.0669 34.3974 28.9315 34.2006 28.8014 33.9985C27.187 31.468 25.578 28.934 23.9566 26.407C22.9577 24.85 21.2748 24.8623 20.3182 26.4333C19.5884 27.63 18.8603 28.8285 18.1569 30.0411C17.9617 30.3785 17.7542 30.5331 17.3392 30.5313C12.8356 30.5155 8.33196 30.5155 3.82834 30.5313C3.42036 30.5313 3.17066 30.4119 3.00536 30.0481C2.31074 28.5175 1.49829 27.029 0.940835 25.4492C0.473064 24.1242 0.302469 22.6955 0 21.3108C0 20.2582 0 19.2055 0 18.1529C0.0984782 17.5502 0.184656 16.9457 0.295444 16.3464C2.6132 3.75886 17.0473 -4.63576 29.816 2.78532C31.193 3.58489 32.4609 4.57074 33.822 5.49859C34.2634 5.15065 34.7505 4.74471 35.2587 4.36689C39.4827 1.23889 44.1569 -0.421756 49.4765 0.101919C57.7504 0.917307 64.8127 6.95364 66.9106 15.0038C67.1797 16.0371 67.3239 17.1021 67.5261 18.1512L67.5279 18.1529Z" fill="white"/>
<path d="M6.45557 34.4642C8.45151 34.4642 10.2944 34.4642 12.1374 34.4642C14.3567 34.4642 16.5759 34.4554 18.7952 34.4677C19.6675 34.473 20.3111 34.118 20.7525 33.3712C21.2079 32.6015 21.6792 31.8405 22.1804 31.0146C22.3527 31.2677 22.4864 31.4539 22.6113 31.6472C24.2748 34.2516 25.9472 36.8506 27.5932 39.4655C28.0786 40.2369 28.6483 40.8239 29.6331 40.7676C30.6478 40.7096 31.1419 40.0366 31.5411 39.1896C33.9485 34.0794 36.3789 28.9814 38.8021 23.8782C38.8936 23.6849 38.9973 23.4969 39.1327 23.235C39.2857 23.4934 39.4106 23.6919 39.5231 23.8993C41.1779 26.964 42.845 30.02 44.4752 33.0988C44.9851 34.0618 45.7061 34.4818 46.7999 34.4747C51.2596 34.4466 55.721 34.4624 60.1824 34.4624H61.0195C60.7698 34.7366 60.6221 34.9123 60.4603 35.074C52.1125 43.3614 43.7647 51.6489 35.4152 59.9328C34.2985 61.0399 33.2205 61.0592 32.1496 59.9978C23.7367 51.6524 15.3256 43.3034 6.91454 34.9562C6.7932 34.835 6.68242 34.705 6.45909 34.4642H6.45557Z" fill="white"/>
</svg>
